<svg width="146" height="30" viewBox="0 0 146 30" fill="none" xmlns="http://www.w3.org/2000/svg">
<g id="logo">
<g id="Group">
<path id="Vector" fill-rule="evenodd" clip-rule="evenodd" d="M28.1013 0H2.1097C0.970464 0 0 0.970464 0 2.1097V10.3376L14.3882 6.11814C14.9367 8.52321 13.7131 10.9283 11.6878 11.519L1.22363 14.5992L0 14.9789V19.9156L9.95781 17.0464L19.0295 14.3882C21.1392 13.7975 23.3755 15.2743 23.9662 17.7637C24.2616 18.903 24.135 20.1688 23.6709 21.2658C23.4177 21.73 23.1224 22.2363 22.7004 22.5738C22.2785 22.9536 21.8143 23.2489 21.308 23.3755L18.8186 24.0928L19.1983 23.9662L17.0886 24.557C17.6371 26.962 16.4135 29.3671 14.3882 29.9578L14.135 30H28.1435C29.2827 30 30.211 29.1139 30.211 27.9747V2.1519C30.211 0.97046 29.2405 0 28.1013 0ZM1.56118 29.9578C0.675106 29.7046 0 28.9451 0 27.9747V24.557L3.45992 23.5443L12.1097 21.097C12.5738 20.9705 13.1224 20.9283 13.6709 21.0549C14.2194 21.1814 14.6835 21.3502 15.1055 21.6456C16.076 22.3207 16.7511 23.3333 17.0464 24.4726C17.0464 24.5148 17.0464 24.5148 17.0464 24.5992V24.6414L12.1941 26.0338L3.62869 28.481C3.08017 28.6498 2.61604 28.903 2.23629 29.2827C1.98312 29.4515 1.72996 29.7046 1.56118 29.9578Z" fill="white"/>
</g>
<g id="Group_2">
<path id="Vector_2" d="M44.3458 23.7131C42.8269 23.7131 41.561 23.3334 40.5484 22.7005C39.5357 22.0254 38.8184 21.1393 38.3965 20.0001L40.9281 18.5233C41.5188 20.0844 42.6581 20.8017 44.4302 20.8017C45.2741 20.8017 45.8648 20.633 46.2446 20.3376C46.6243 20.0422 46.8353 19.6625 46.8353 19.1984C46.8353 18.6498 46.5821 18.2279 46.118 17.9325C45.6539 17.6372 44.81 17.3418 43.5864 16.9621C42.9112 16.7933 42.3205 16.5401 41.8564 16.3714C41.3923 16.2026 40.8859 15.9072 40.464 15.6119C39.9999 15.2321 39.6201 14.8524 39.3669 14.346C39.1138 13.7975 38.9872 13.2068 38.9872 12.5317C38.9872 11.1393 39.4513 10.0844 40.4218 9.28275C41.3923 8.52326 42.5737 8.10132 43.9239 8.10132C45.1475 8.10132 46.2024 8.39667 47.1729 8.98739C48.0589 9.57811 48.8184 10.422 49.3248 11.4346L46.7931 12.8693C46.2024 11.5612 45.2319 10.9705 43.9239 10.9705C43.3332 10.9705 42.8269 11.0971 42.4893 11.3925C42.1096 11.6878 41.9408 12.0676 41.9408 12.4895C41.9408 12.9536 42.1096 13.3334 42.5315 13.6287C42.9534 13.9241 43.6707 14.2195 44.81 14.5992C45.2741 14.7258 45.6117 14.8524 45.8226 14.979C46.0758 15.0212 46.3712 15.1477 46.7931 15.3587C47.215 15.5275 47.5104 15.6541 47.7636 15.8228C48.0167 15.9494 48.2277 16.2026 48.5653 16.4136C48.8606 16.6667 49.0294 16.8777 49.2404 17.173C49.4091 17.4262 49.5357 17.7638 49.6201 18.1435C49.7467 18.5233 49.7889 18.903 49.7889 19.3249C49.7889 20.7173 49.3248 21.8566 48.2699 22.6161C47.2994 23.2912 45.9492 23.7131 44.3458 23.7131Z" fill="white"/>
<path id="Vector_3" d="M58.7332 12.7003H61.518V23.4176H58.7332V22.2361C58.0581 23.2488 57.0032 23.7129 55.5264 23.7129C54.3028 23.7129 53.3745 23.291 52.5728 22.5315C51.7711 21.772 51.4336 20.675 51.4336 19.2404V12.6581H54.2184V18.9028C54.2184 19.6201 54.3872 20.1686 54.8091 20.5062C55.1889 20.8859 55.6952 21.0969 56.3703 21.0969C57.0876 21.0969 57.6783 20.8437 58.1003 20.4218C58.5222 19.9999 58.7754 19.2826 58.7754 18.4387L58.7332 12.7003Z" fill="white"/>
<path id="Vector_4" d="M70.3377 12.406C71.7723 12.406 73.0381 12.9545 74.0508 14.0094C75.0634 15.1064 75.612 16.4566 75.612 18.0178C75.612 19.579 75.0634 20.9714 74.0508 22.0263C73.0381 23.1233 71.7723 23.6296 70.3377 23.6296C68.8187 23.6296 67.6795 23.0811 66.8356 22.0685V27.6381H64.0508V12.6592H66.8356V13.925C67.6795 12.9123 68.8187 12.406 70.3377 12.406ZM67.6795 20.2541C68.228 20.8026 68.9453 21.098 69.8314 21.098C70.6753 21.098 71.3926 20.8026 71.9833 20.2541C72.5318 19.7056 72.8272 18.9461 72.8272 18.1022C72.8272 17.2161 72.5318 16.4988 71.9833 15.9503C71.4347 15.4018 70.7175 15.1064 69.8314 15.1064C68.9875 15.1064 68.2702 15.4018 67.6795 15.9503C67.131 16.4988 66.8356 17.2583 66.8356 18.1022C66.8356 18.9461 67.131 19.6634 67.6795 20.2541Z" fill="white"/>
<path id="Vector_5" d="M79.9161 19.1993C80.2958 20.5073 81.3085 21.2246 82.9962 21.2246C84.0933 21.2246 84.8528 20.8448 85.4013 20.1275L87.6376 21.4355C86.5405 22.9967 84.9794 23.714 82.954 23.714C81.1397 23.714 79.7473 23.1655 78.6924 22.1106C77.5954 21.0136 77.0469 19.6634 77.0469 18.06C77.0469 16.4566 77.5954 15.0642 78.6924 14.0094C79.7895 12.9545 81.0975 12.406 82.7853 12.406C84.3465 12.406 85.6545 12.9545 86.7093 14.0094C87.7642 15.0642 88.2705 16.4566 88.2705 18.0178C88.2705 18.3976 88.2283 18.7351 88.1439 19.1571L79.9161 19.1993ZM79.9161 17.0474H85.4013C85.2325 16.3301 84.9372 15.7815 84.4308 15.444C83.9667 15.0642 83.3338 14.8955 82.7431 14.8955C82.0258 14.8955 81.3507 15.0642 80.8865 15.444C80.3802 15.8237 80.0427 16.3723 79.9161 17.0474Z" fill="white"/>
<path id="Vector_6" d="M92.911 14.5157C93.1641 13.8406 93.5861 13.3343 94.1768 12.9545C94.7675 12.5748 95.4426 12.406 96.1599 12.406V15.5284C95.316 15.4018 94.5144 15.5706 93.8815 16.0769C93.2063 16.4988 92.8688 17.2583 92.8688 18.271V23.4187H90.084V12.7014H92.8688L92.911 14.5157Z" fill="white"/>
<path id="Vector_7" d="M102.531 23.7128C100.886 23.7128 99.5356 23.1642 98.4385 22.1094C97.3415 21.0123 96.793 19.6621 96.793 18.101C96.793 16.5398 97.3415 15.1474 98.4385 14.0925C99.5356 12.9955 100.886 12.4891 102.531 12.4891C103.544 12.4891 104.514 12.7423 105.401 13.2486C106.244 13.7128 106.92 14.4301 107.384 15.2739L104.979 16.6664C104.725 16.2444 104.43 15.9069 104.008 15.5693C103.586 15.3161 103.122 15.1896 102.489 15.1896C101.645 15.1896 100.97 15.4849 100.464 16.0334C99.9153 16.582 99.62 17.2993 99.62 18.1431C99.62 18.987 99.9153 19.7043 100.464 20.2529C101.012 20.8014 101.73 21.0967 102.489 21.0967C103.038 21.0967 103.586 20.9701 104.008 20.717C104.43 20.4638 104.81 20.1263 104.979 19.7043L107.384 21.0967C106.92 21.9406 106.244 22.5735 105.401 23.122C104.514 23.5018 103.544 23.7128 102.531 23.7128Z" fill="white"/>
<path id="Vector_8" d="M111.012 19.1991C111.392 20.5072 112.404 21.2244 114.092 21.2244C115.189 21.2244 115.948 20.8447 116.497 20.1274L118.733 21.4354C117.636 22.9966 116.075 23.7139 114.05 23.7139C112.235 23.7139 110.843 23.1654 109.788 22.1105C108.691 21.0135 108.143 19.6633 108.143 18.0599C108.143 16.4565 108.691 15.0641 109.788 14.0093C110.885 12.9544 112.193 12.4059 113.881 12.4059C115.442 12.4059 116.75 12.9544 117.805 14.0093C118.818 15.1063 119.366 16.4565 119.366 18.0177C119.366 18.3974 119.324 18.735 119.24 19.1569L111.012 19.1991ZM111.012 17.0472H116.497C116.328 16.3299 116.033 15.7814 115.527 15.4439C115.062 15.0641 114.429 14.8953 113.839 14.8953C113.121 14.8953 112.446 15.0641 111.982 15.4439C111.518 15.8236 111.138 16.3721 111.012 17.0472Z" fill="white"/>
<path id="Vector_9" d="M129.325 8.39758H132.11V23.4187H129.325V22.1529C128.481 23.1655 127.342 23.714 125.823 23.714C124.388 23.714 123.123 23.1655 122.11 22.1107C121.097 21.0136 120.549 19.6634 120.549 18.1022C120.549 16.541 121.097 15.1486 122.11 14.0938C123.123 12.9967 124.388 12.4904 125.823 12.4904C127.342 12.4904 128.481 13.0389 129.325 14.0516V8.39758ZM124.178 20.2541C124.726 20.8026 125.443 21.098 126.329 21.098C127.173 21.098 127.891 20.8026 128.481 20.2541C129.03 19.7056 129.325 18.9461 129.325 18.1022C129.325 17.2161 129.03 16.4988 128.481 15.9503C127.933 15.4018 127.216 15.1064 126.329 15.1064C125.486 15.1064 124.768 15.4018 124.178 15.9503C123.629 16.4988 123.334 17.2583 123.334 18.1022C123.376 18.9461 123.671 19.6634 124.178 20.2541Z" fill="white"/>
<path id="Vector_10" d="M136.961 19.1991C137.341 20.5072 138.353 21.2244 140.041 21.2244C141.138 21.2244 141.898 20.8447 142.446 20.1274L144.683 21.4354C143.585 22.9966 142.024 23.7139 139.999 23.7139C138.185 23.7139 136.792 23.1654 135.737 22.1105C134.64 21.0135 134.092 19.6633 134.092 18.0599C134.092 16.4565 134.64 15.0641 135.737 14.0093C136.834 12.9122 138.142 12.4059 139.83 12.4059C141.391 12.4059 142.699 12.9544 143.754 14.0093C144.767 15.1063 145.315 16.4565 145.315 18.0177C145.315 18.3974 145.273 18.735 145.189 19.1569L136.961 19.1991ZM136.877 17.0894H142.362C142.193 16.3721 141.898 15.8236 141.391 15.4861C140.927 15.1063 140.294 14.9375 139.704 14.9375C138.986 14.9375 138.311 15.1063 137.847 15.4861C137.383 15.8236 137.088 16.3721 136.877 17.0894Z" fill="white"/>
</g>
</g>
</svg>
