<svg width="68" height="68" viewBox="0 0 68 68" fill="none" xmlns="http://www.w3.org/2000/svg">
<g id="sii-document-rocket">
<g id="Vector">
<path d="M28.8908 53.8445C26.9881 53.939 25.0855 54.0019 23.218 54.0964L14.6913 54.5686L13.2467 54.663L12.8944 54.6945L12.8239 52.2391C12.542 45.4398 11.9783 38.6719 11.4145 31.904C11.0974 28.5358 10.8155 25.1361 10.428 21.7679L9.79375 16.6998C9.58234 15 9.3357 13.3316 9.1243 11.6317L8.98336 10.6244L11.485 10.4041L17.1577 9.9319L17.8624 9.86895L18.5671 9.83747L20.0117 9.74303L25.6492 9.42825L27.0938 9.33381L28.5032 9.27085L34.1759 9.11346L37.0299 9.01902C38.0165 8.95607 38.9678 8.95607 39.9191 8.95607L45.5919 8.89311H46.2965L46.5079 11.1596L46.966 16.2591C47.1069 17.9589 47.2831 19.6588 47.4593 21.3586C47.8116 24.7268 48.164 28.1265 48.4811 31.4947L48.5163 31.7151C49.3267 31.18 50.3133 30.5189 51.5112 29.8579C51.2998 24.8842 50.9122 19.9421 50.2428 15C49.9962 13.2372 49.7143 11.4744 49.3972 9.74303L49.1505 8.45241L49.0096 7.79136L48.9391 7.47657C48.9039 7.35066 48.8686 7.25622 48.7982 7.13031C48.5515 6.65813 47.9878 6.4063 47.4593 6.46926L45.9794 6.62665L40.0601 7.16179C39.0735 7.25622 38.1222 7.38214 37.1004 7.44509L34.1407 7.69692L28.2213 8.1691C27.728 8.20058 27.2348 8.23206 26.7415 8.26354L25.2616 8.32649L19.3423 8.64128L17.8624 8.73572C17.3691 8.76719 16.8759 8.76719 16.3826 8.76719L10.4632 8.92459L8.98336 8.95607L8.24344 8.98755H7.85586C7.71492 8.98755 7.60922 8.98754 7.46828 9.01902C7.22164 9.08198 6.975 9.27085 6.8693 9.45972C6.83406 9.55416 6.83406 9.61712 6.79883 9.71155C6.79883 9.74303 6.79883 9.74303 6.79883 9.77451C6.79883 9.80599 6.79883 9.80599 6.79883 9.83747C6.79883 9.86895 6.79883 9.86895 6.79883 9.90042C6.79883 9.90042 6.79883 9.90042 6.79883 9.9319V9.99486C6.79883 9.99486 6.79883 9.99486 6.79883 10.0263C6.79883 10.0893 6.79883 10.1523 6.79883 10.2152L6.83406 11.4744L7.04547 16.7942C7.0807 17.2979 7.0807 17.8016 7.11594 18.3052C7.15117 19.4384 7.18641 20.5402 7.25687 21.6734C7.29211 22.1456 7.29211 22.6493 7.32734 23.1214L7.53875 27.497C7.53875 27.7488 7.57398 27.9691 7.57398 28.221L8.03203 37.9793C8.2082 41.5049 8.34914 45.0305 8.56055 48.5876C8.66625 50.3504 8.73672 52.1132 8.87766 53.9075L9.05383 56.5517L9.08906 57.2128C9.1243 57.4331 9.23 57.6849 9.37094 57.8738C9.51187 58.0942 9.75851 58.2201 10.0052 58.3145C10.2518 58.4089 10.5689 58.3775 10.7803 58.3775L16.6644 57.7479C18.6376 57.5275 20.6107 57.3387 22.5486 57.0868C24.5569 56.835 26.6005 56.6147 28.6089 56.3628C28.6441 55.4185 28.8908 54.5686 29.2079 53.876L28.8908 53.8445Z" fill="#002F5A"/>
<path d="M29.8762 45.6592C29.1716 45.7222 28.4669 45.7852 27.7622 45.8481C27.7975 45.6907 27.7975 45.5333 27.8327 45.4074C27.9032 44.8723 27.9032 44.3057 27.9032 43.7076L27.8679 42.0079C27.8679 41.8819 27.8679 41.756 27.8679 41.5986L30.4752 41.3468C31.3913 41.2524 32.2721 41.1894 33.1881 41.095C34.2451 39.7415 35.1964 38.7342 36.0068 38.1361C35.9011 36.4363 35.7954 34.7365 35.6897 33.0368C36.6058 32.9738 37.5218 32.9108 38.4379 32.8479L40.0234 32.7535L40.5871 32.722L40.869 35.7123C40.9042 36.0271 40.9394 36.3419 40.9747 36.6567C41.4679 36.6567 41.9612 36.6882 42.5602 36.6882C42.9477 36.6882 43.3705 36.6881 43.8638 36.6567C43.7581 35.2087 43.6876 33.7293 43.5819 32.2813C43.5467 31.6832 43.4762 31.1166 43.4058 30.5186L43.1944 28.7558L42.8068 25.2303C42.7011 24.0342 42.5602 22.8695 42.4545 21.7049C42.384 21.1068 42.3488 20.5402 42.2783 19.9421C42.2783 19.6588 42.2431 19.3755 42.2431 19.0607C42.2431 18.7774 42.2078 18.4627 42.2431 18.1794L42.1726 17.0462C42.1726 16.9203 42.1726 16.8258 42.1374 16.7629C42.1021 16.6684 42.1021 16.574 42.0669 16.4796C41.9964 16.2907 41.926 16.1019 41.926 15.9445C41.8555 15.6297 41.6793 15.3149 41.3975 15.0631C41.2565 14.9372 41.0804 14.8428 40.9042 14.7798C40.7985 14.7483 40.6576 14.7483 40.5166 14.7483C40.4462 14.6854 40.3757 14.6224 40.27 14.6224C40.2348 14.5909 40.1643 14.5909 40.1291 14.5909H39.9881L39.4596 14.6224L38.3674 14.6854C37.4161 14.6224 36.5001 14.6224 35.5488 14.6854L32.7301 14.8428C31.7788 14.9057 30.8275 14.9372 29.9115 15.0316L27.0928 15.252C25.1902 15.4093 23.3581 15.5667 21.4555 15.7241L20.0462 15.85L17.2275 16.0389L16.5229 16.1019C16.3819 16.1333 16.2762 16.1333 16.1705 16.1333C16.0296 16.1648 15.9239 16.2278 15.8534 16.3222C15.7125 16.3852 15.6068 16.5111 15.5716 16.6055C15.5363 16.7314 15.5363 16.8888 15.5363 16.9832L15.6068 17.0777C15.5716 17.1091 15.5011 17.1721 15.4659 17.235C15.3602 17.361 15.3249 17.4554 15.2545 17.5813C15.184 17.8331 15.1135 18.0535 15.0431 18.3053C14.9726 18.8089 14.9021 19.2811 14.8669 19.7847C14.7964 20.792 14.8669 21.7678 14.9726 22.7436L15.1488 25.671L15.2545 27.1505L15.3954 28.6299L15.9591 34.6736L16.2762 37.601C16.3115 38.0732 16.3819 38.5768 16.4172 39.049C16.4524 39.3008 16.4524 39.5211 16.4524 39.7729C16.4524 40.0248 16.4876 40.2766 16.4524 40.4969C16.5581 41.9134 16.699 43.3299 16.8752 44.7464C16.9809 45.25 17.0514 45.7852 17.1923 46.2888L17.298 46.6036C17.3332 46.6665 17.3332 46.761 17.3685 46.8239C17.4037 46.8869 17.4037 46.9498 17.4389 46.9813L17.5799 47.3905C17.6151 47.5164 17.6503 47.6109 17.6856 47.7053C17.756 47.8312 17.8265 47.9886 17.9322 48.083C17.9674 48.1145 18.0027 48.1145 18.0379 48.1145C18.0731 48.146 18.1084 48.146 18.1436 48.1774H18.1788C18.355 48.2404 18.5311 48.2089 18.6368 48.2089L18.7778 48.1774C18.813 48.1774 18.8482 48.1774 18.8482 48.1774L26.071 47.7997L26.9871 47.7682C27.3042 47.7368 27.5861 47.7053 27.9032 47.6738L28.7488 47.5794C29.1363 46.8869 29.5591 46.2258 29.9467 45.5963L29.8762 45.6592ZM40.7633 14.9057C40.9042 14.9372 41.0804 15.0316 41.1861 15.1261C41.2918 15.2205 41.3622 15.3149 41.4327 15.4408C41.1508 15.0946 40.7985 14.9057 40.4814 14.9372V14.9057C40.5871 14.8742 40.6928 14.8742 40.7633 14.9057ZM16.3819 16.6055L16.5581 16.574C16.5933 16.574 16.6638 16.574 16.699 16.574C16.5933 16.6055 16.4876 16.6055 16.3819 16.6055ZM39.7415 24.8211L39.7767 25.2303L39.9177 26.7098L40.3405 30.8019C39.4244 30.9592 38.4379 30.9907 37.4866 31.0537L35.4431 31.1796C35.4431 31.0851 35.4078 30.9592 35.4078 30.8648L35.1964 29.165L34.8089 25.7655C34.7736 25.5766 34.7736 25.3562 34.7384 25.1674C35.126 25.1359 35.5135 25.1044 35.8659 25.0729C36.3591 25.0415 36.8172 24.9785 37.3104 24.947C37.5571 24.9156 37.8037 24.9156 38.0151 24.9156C38.2617 24.9156 38.5083 24.8841 38.7197 24.9156L39.6358 24.8526C39.7063 24.8211 39.7063 24.8211 39.7415 24.8211ZM34.2451 17.235C35.2317 17.1721 36.2182 17.0777 37.1695 17.0147C37.6628 16.9832 38.156 16.9517 38.6493 16.9203C38.8959 16.8888 39.1425 16.8888 39.3892 16.8573C39.3892 16.8573 39.3892 16.8573 39.4244 16.8573C39.3892 17.1406 39.3892 17.4239 39.3539 17.7072C39.2835 18.7145 39.3539 19.7218 39.4596 20.729L39.6006 22.6807C39.4596 22.6807 39.3187 22.6492 39.213 22.6492C38.4027 22.6177 37.5923 22.6492 36.7467 22.7436L34.527 22.8695C34.527 22.7121 34.4918 22.5547 34.4918 22.3974C34.4213 21.8308 34.3861 21.2642 34.3156 20.6976C34.2804 20.4143 34.2804 20.131 34.2804 19.8477C34.2451 19.5644 34.2451 19.2811 34.2804 18.9978L34.2099 17.8961C34.2099 17.8016 34.2099 17.7072 34.1747 17.6128C34.1394 17.5183 34.1394 17.4239 34.1042 17.3295C34.1042 17.298 34.1042 17.2665 34.069 17.2665C34.1394 17.2665 34.1747 17.2665 34.2451 17.235ZM17.9322 24.4119C17.897 24.2231 17.897 24.0342 17.8617 23.8453C17.7913 23.2787 17.756 22.6807 17.6856 22.1141C17.6503 21.8308 17.6503 21.5475 17.6503 21.2327C17.6151 20.9494 17.6151 20.6346 17.6503 20.3513L17.5799 19.2496C17.5799 19.1552 17.5799 19.0607 17.5446 18.9663C17.5094 18.8719 17.5094 18.7774 17.4742 18.683C17.4037 18.5571 17.3685 18.4312 17.3685 18.3053C17.6151 18.2738 17.8265 18.2738 18.0731 18.2738C18.5664 18.2423 19.0596 18.2738 19.5529 18.2738C20.0462 18.2738 20.5394 18.2738 21.0327 18.2423L22.5125 18.1479C22.7944 18.1164 23.0762 18.1164 23.3933 18.0849C23.2876 18.5571 23.2524 19.0293 23.2172 19.5014C23.1819 20.4458 23.2172 21.453 23.3229 22.3974L23.4286 23.8453C23.2524 23.8768 23.041 23.8768 22.8648 23.8768C22.6534 23.8768 22.442 23.9083 22.2659 23.8768H22.2306C21.0327 23.9712 19.8348 24.0657 18.6721 24.2231C18.3902 24.3175 18.1436 24.349 17.9322 24.4119ZM18.813 32.5016V32.4702L18.6016 30.7389L18.2141 27.3078C18.1788 26.9616 18.1436 26.6468 18.1084 26.3006C18.355 26.3006 18.6016 26.3006 18.8482 26.3006H20.2928C20.5394 26.3006 20.7861 26.3006 20.9975 26.3006L21.7021 26.2691C22.3011 26.2376 22.9001 26.2061 23.5343 26.1747L23.5695 26.7727L23.7104 28.2207L24.1332 32.0295C23.499 32.0924 22.8648 32.1554 22.2306 32.1869L20.7156 32.2813C20.2223 32.3128 19.6938 32.3757 19.2006 32.4387C19.0596 32.4702 18.9187 32.4702 18.813 32.5016ZM18.9892 34.2644C19.1653 34.2644 19.3767 34.2644 19.5881 34.2644C20.6451 34.2329 21.6669 34.2014 22.7239 34.1385L24.3799 34.044L24.6617 36.8455C24.697 37.3177 24.7674 37.7899 24.8027 38.2935C24.8379 38.5138 24.8379 38.7657 24.8379 38.986C24.8379 39.2064 24.8731 39.4582 24.8379 39.6785V39.71C24.8379 39.8044 24.8379 39.8674 24.8731 39.9618C24.098 40.0248 23.3581 40.0877 22.583 40.1507L20.927 40.2766C20.5394 40.3081 20.2576 40.3081 20.1519 40.3395C20.1519 40.3395 20.1519 40.3395 20.1166 40.3395L19.9052 40.371C19.87 40.371 19.8348 40.371 19.8348 40.371C19.7995 40.371 19.7643 40.371 19.7291 40.371H19.5881C19.5529 40.371 19.4824 40.371 19.4472 40.371C19.271 38.325 19.1301 36.2789 18.9892 34.2644ZM23.5343 46.1629L20.3633 46.4147L19.4472 46.4777C19.4472 46.4147 19.4472 46.3517 19.4824 46.3203C19.5177 45.7537 19.5177 45.1556 19.5177 44.589L19.4824 42.8577C19.4472 42.6059 19.4824 42.3856 19.4472 42.1338L20.328 42.1023L23.6752 41.9449L24.9788 41.8505C25.0493 42.5115 25.1198 43.1725 25.1902 43.865C25.2607 44.2113 25.3311 44.5575 25.4016 44.9038C25.4721 45.25 25.5425 45.5963 25.6835 45.9425C25.6835 45.974 25.7187 46.0055 25.7187 46.037C25.014 46.0685 24.2742 46.0999 23.5343 46.1629ZM26.212 23.4046C26.1415 22.838 26.1063 22.3029 26.0358 21.7049C26.0006 21.4216 26.0006 21.1383 26.0006 20.855C25.9653 20.5717 25.9653 20.2884 26.0006 20.0051L25.9301 18.9034C25.9301 18.8089 25.9301 18.7145 25.8949 18.6201C25.8596 18.5256 25.8596 18.4312 25.8244 18.3368C25.7892 18.1794 25.7539 18.0535 25.7187 17.8961L28.3612 17.6757C29.4182 17.5813 30.4752 17.4869 31.497 17.3924C31.4265 17.7387 31.3913 18.0849 31.3913 18.4312C31.356 19.407 31.3913 20.3828 31.497 21.3586L31.6027 22.9954L27.0576 23.4676L26.2472 23.562C26.2472 23.562 26.2472 23.4991 26.212 23.4046ZM26.9871 30.1723L26.5995 26.8042C26.5643 26.5524 26.5291 26.2691 26.5291 25.9858C26.8462 25.9543 27.128 25.9543 27.4451 25.9228C28.8897 25.7969 30.3695 25.6395 31.8141 25.4822L31.8493 25.7655L31.9902 27.2134L32.413 31.3684C31.0742 31.4629 29.7001 31.5258 28.3612 31.6517C27.9736 31.6832 27.5861 31.7147 27.1985 31.7462L26.9871 30.1723ZM27.3747 33.7922C27.9032 33.7293 28.4669 33.6978 28.9954 33.6348C30.1933 33.5089 31.3913 33.4145 32.5892 33.2886L32.871 35.9327C32.9063 36.4049 32.9767 36.877 33.012 37.3807C33.0472 37.6325 33.0472 37.8528 33.0472 38.1046C33.0472 38.325 33.0824 38.5768 33.0472 38.7971V38.8286C33.0472 38.9545 33.0824 39.0804 33.0824 39.2063H33.0472C32.5539 39.2378 32.0607 39.3008 31.5322 39.3323L28.5374 39.6156C28.2555 39.647 28.0089 39.647 27.727 39.6785C27.6565 37.7269 27.5156 35.7438 27.3747 33.7922Z" fill="#002F5A"/>
<path d="M38.0865 48.9983C37.9807 49.1557 37.875 49.3131 37.7341 49.4705C35.9371 51.3907 34.1402 53.3109 32.3432 55.2311C32.2022 55.3885 32.0261 55.5144 31.8147 55.5774C31.568 55.6718 31.3214 55.5774 31.1452 55.357C30.969 55.1682 30.969 54.9478 31.0747 54.7275C31.1452 54.633 31.2157 54.5386 31.2861 54.4441C33.0831 52.5239 34.8801 50.5722 36.6771 48.652C36.8885 48.4317 37.1351 48.2428 37.4875 48.3057C37.6989 48.3687 37.8398 48.5261 38.0512 48.652C38.0512 48.7779 38.0512 48.8724 38.0865 48.9983Z" fill="#002F5A"/>
<path d="M37.6287 49.375C37.6639 49.375 37.6639 49.3435 37.6991 49.312C37.8401 49.2176 37.981 49.0287 38.0515 48.9658C38.0867 48.9028 38.0163 48.9657 37.8753 49.375C37.8753 49.375 37.8401 49.4694 37.8048 49.5009C37.3116 50.2564 36.783 51.0119 36.2545 51.7359C35.7612 52.397 35.2679 53.0265 34.7394 53.6561L34.528 53.8765L34.4928 53.9394L34.4223 54.0339L34.1757 54.2857L33.2596 55.3245C33.1186 55.4819 32.9425 55.6708 32.8015 55.8282C32.6606 55.9541 32.5196 56.0485 32.4139 56.1115C32.1673 56.2374 32.0263 56.3003 31.8854 56.3318C31.8149 56.3633 31.7797 56.3318 31.7092 56.3948C31.674 56.3948 31.6035 56.3948 31.4978 56.3948C31.3569 56.3948 31.1807 56.3633 30.9341 56.2374C30.6874 56.1115 30.476 55.9541 30.3703 55.7337C30.2294 55.5449 30.1589 55.356 30.1589 55.2615C30.1237 55.1671 30.1237 55.0727 30.1237 54.9153C30.1589 54.7894 30.1589 54.6005 30.3351 54.3172C30.476 54.1598 30.5465 54.0339 30.7227 53.8765L31.1807 53.4043L32.0968 52.4284L32.4492 52.1136L32.731 51.8303L33.2948 51.2952C33.2948 51.2952 33.7881 50.886 34.4575 50.3193C35.127 49.7842 35.9374 49.0917 36.6773 48.4936C36.8183 48.3677 36.9944 48.2417 37.2059 48.2103C37.382 48.1788 37.5582 48.2417 37.6991 48.3047C37.8048 48.3676 37.9106 48.4621 37.981 48.525C38.0163 48.5565 38.0515 48.588 38.0867 48.6195C38.122 48.651 38.122 48.7139 38.122 48.7139C38.122 48.9658 38.1572 49.0602 38.122 48.9658C38.122 48.9028 38.0867 48.8398 38.0867 48.7454V48.651C38.0867 48.6195 38.0867 48.6195 38.0515 48.588C37.981 48.5565 37.9106 48.525 37.8401 48.4621C37.6991 48.3676 37.523 48.3047 37.3468 48.3362C37.1706 48.3677 37.0297 48.525 36.924 48.6824C36.9944 48.6195 36.325 49.5009 35.6908 50.4138C35.0213 51.3267 34.3518 52.2396 34.3518 52.2396L33.6119 53.121L33.5414 53.1839L33.4357 53.1525H33.471L33.4357 53.1839C33.4357 53.1839 33.471 53.1839 33.4357 53.1525L33.4005 53.0895V53.058L33.5062 52.9636L33.7176 52.7432C34.3166 52.1766 34.9156 51.61 35.5498 51.0748C36.184 50.5397 36.8887 49.9416 37.6287 49.375Z" fill="#002F5A"/>
<path d="M38.1566 60.4865C37.5223 60.2661 37.3814 59.8569 37.8395 59.3847C39.6717 57.4015 41.5391 55.4184 43.3713 53.4352C43.618 53.1519 44.0055 53.1204 44.2874 53.3093C44.6045 53.4981 44.6398 53.8444 44.4284 54.1592C44.3931 54.2222 44.3227 54.2851 44.2522 54.3481C42.4905 56.2368 40.7639 58.1256 39.0022 60.0143C38.8613 60.1717 38.6499 60.3291 38.4737 60.455C38.368 60.455 38.2623 60.4865 38.1566 60.4865Z" fill="#002F5A"/>
<path d="M37.9108 60.0147C37.9108 60.0462 37.9108 60.0462 37.9108 60.0777C37.9108 60.2351 38.1222 60.3924 38.1574 60.4554C38.1927 60.4869 38.1927 60.4869 38.087 60.4869C38.0165 60.4869 37.8756 60.4869 37.5585 60.3924C37.5232 60.3924 37.4528 60.3295 37.3823 60.298C37.2413 60.1721 37.1709 60.0147 37.1356 59.8258C37.1356 59.637 37.1709 59.4796 37.2413 59.3536C37.3118 59.2277 37.3823 59.0703 37.4528 59.0074L37.6289 58.7241C37.8756 58.3463 38.1574 58 38.4393 57.6223C38.686 57.3075 38.9678 56.9927 39.2497 56.7094C39.5316 56.4261 39.8487 56.1743 40.2011 55.9224C40.5534 55.6706 40.9058 55.4188 41.2229 55.1669C41.54 54.9151 41.8571 54.6318 42.139 54.3485C42.4209 54.0652 42.6675 53.7504 42.9141 53.4356L42.9846 53.3097C43.0198 53.2782 43.0198 53.2467 43.0903 53.1838C43.196 53.0893 43.3017 52.9634 43.4427 52.9005C43.7598 52.7431 44.2178 52.7431 44.5349 52.9319C44.8521 53.0893 45.1339 53.4356 45.1692 53.8133C45.1692 54.0022 45.1339 54.1911 45.0635 54.3485C44.993 54.5374 44.9225 54.6003 44.8168 54.7262C44.5702 55.0725 44.3235 55.3558 44.0769 55.7021C43.7598 56.1113 43.4427 56.4891 43.1255 56.8668C43.1255 56.8668 42.6675 57.3075 41.998 57.8427C41.3286 58.3778 40.4477 59.0389 39.7078 59.6055C39.4259 59.8258 39.144 60.0462 38.9326 60.2036C38.7212 60.361 38.545 60.4554 38.4041 60.5184C38.087 60.5184 38.0165 60.5184 38.087 60.5184C38.3689 60.6443 38.7564 60.0147 39.2497 59.2277C39.1793 59.2907 39.7782 58.3778 40.4125 57.4649C40.7296 56.9927 41.0819 56.552 41.3286 56.2057C41.6105 55.8595 41.7866 55.6706 41.7866 55.6706C42.1037 55.3558 42.4209 55.0725 42.738 54.7577C43.0198 54.4744 43.337 54.1911 43.6188 53.9393C43.7598 53.8133 43.795 53.8133 43.8302 53.8133C43.8655 53.8133 43.9007 53.8133 43.9007 53.7189C43.8655 53.6245 43.7245 53.4986 43.3722 53.8448C43.0551 54.0967 42.7732 54.38 42.4913 54.6948C42.2094 54.9781 41.9628 55.3243 41.7514 55.6391C41.54 55.9854 41.3286 56.3317 41.1172 56.6779C40.9058 57.0242 40.6591 57.339 40.4125 57.6538C40.1658 57.9686 39.8487 58.2519 39.5668 58.5352C39.2497 58.85 38.8974 59.1648 38.5098 59.4481L38.2279 59.6684L38.0165 59.8258C37.946 59.8573 37.9108 59.9203 37.8756 59.9517C37.9108 59.9203 37.9108 59.9517 37.9108 60.0147Z" fill="#002F5A"/>
<path d="M46.9656 50.9486C46.4019 51.2319 45.9086 51.4522 45.4153 51.704C45.0278 51.8929 44.7107 51.8614 44.3936 51.6096C42.8433 50.4449 41.2931 49.2803 39.7428 48.1471C39.3905 47.8952 39.2848 47.6119 39.4609 47.2342C39.6371 46.7621 39.8133 46.2899 39.9894 45.7862C39.2143 45.8807 38.5096 46.0066 37.7697 46.101C36.2547 46.3214 34.7749 46.5417 33.2599 46.7621C32.9076 46.825 32.6257 46.6991 32.4848 46.4788C32.3086 46.1955 32.4143 45.9751 32.5905 45.7548C34.3874 43.8032 36.2195 41.8516 38.0164 39.9314C38.1573 39.774 38.4039 39.6796 38.6153 39.6481C40.3418 39.3963 42.1034 39.176 43.8298 38.9871C44.2174 38.9241 44.4993 38.7982 44.7811 38.5149C48.9387 34.2969 54.0122 31.3695 60.0371 29.7327C60.6008 29.5753 61.0236 29.9216 60.9532 30.4567C60.3542 35.2727 58.5573 39.7111 55.492 43.7402C54.9988 44.3698 54.4703 44.9678 53.977 45.5974C53.9065 45.7233 53.8361 45.8807 53.8361 46.0066C53.9065 47.7064 53.977 49.3747 54.0475 51.0745C54.0475 51.2948 53.977 51.5466 53.8008 51.704C52.0392 53.6242 50.2423 55.5443 48.4806 57.4644C48.2692 57.6848 47.9874 57.8421 47.6703 57.7477C47.3179 57.6533 47.2122 57.4015 47.2122 57.0867C47.177 55.2295 47.1065 53.3723 47.0713 51.5466C46.9656 51.3263 46.9656 51.1689 46.9656 50.9486ZM59.4381 31.1492C59.2972 31.1807 59.2267 31.2121 59.1563 31.2121C55.5273 32.3453 52.2153 33.9822 49.2205 36.1856C45.2392 39.113 42.3853 42.7329 40.835 47.1398C40.7646 47.2972 40.7998 47.3916 40.9407 47.486C42.2444 48.4304 43.548 49.4062 44.8164 50.382C44.9573 50.5079 45.063 50.4764 45.2392 50.4134C49.1148 48.5563 52.2506 45.9751 54.6464 42.7014C56.7252 39.8999 58.0993 36.8151 58.9449 33.573C59.1563 32.7545 59.262 31.9676 59.4381 31.1492ZM48.4102 55.4813C48.4806 55.4184 48.5159 55.4184 48.5159 55.3869C49.8547 53.9704 51.1936 52.5224 52.4972 51.1059C52.5677 51.043 52.6029 50.9486 52.6029 50.8541C52.5677 49.658 52.4972 48.4618 52.4267 47.2342C52.4267 47.1713 52.3915 47.1398 52.3915 47.0768C52.3563 47.1083 52.321 47.1083 52.321 47.1083C51.1231 48.1785 49.8195 49.1543 48.4102 50.0357C48.3045 50.0987 48.2692 50.2561 48.2692 50.3505C48.2692 51.1374 48.3045 51.9244 48.3397 52.6798C48.3749 53.6242 48.4102 54.537 48.4102 55.4813ZM43.1604 40.2147C41.7159 40.4036 40.3418 40.5925 39.0029 40.7498C38.8972 40.7498 38.7915 40.8443 38.721 40.9072C37.4174 42.2922 36.149 43.6772 34.8454 45.0623C34.8102 45.1252 34.7749 45.1567 34.7045 45.2511C36.5366 44.9993 38.3335 44.7475 40.1304 44.4642C40.1656 44.4642 40.2008 44.4327 40.2713 44.4327C40.4827 44.4327 40.5884 44.3068 40.6589 44.1494C41.2578 42.8903 41.9977 41.7256 42.8786 40.5924C42.949 40.5295 43.0195 40.4036 43.1604 40.2147Z" fill="#002F5A"/>
<path d="M42.5234 40.026C42.5587 40.026 42.5939 40.026 42.6291 40.0574C42.8405 40.1204 43.0872 40.1834 43.1577 40.1834C43.2281 40.2148 43.1577 40.1834 42.7348 40.4667C42.7348 40.4667 42.6291 40.5296 42.5939 40.5296C41.6778 40.8759 40.7265 41.1277 39.7751 41.3166L39.458 41.3796L39.3171 41.411V41.3796L39.1761 41.5055C38.8942 41.7888 38.6124 42.0406 38.2953 42.2925C37.661 42.7646 36.9563 43.2053 36.4278 43.772C36.2869 43.8979 36.1459 44.0553 36.0402 44.1812C35.9345 44.3071 35.7231 44.5275 35.7936 44.5275V44.6219H35.7584L35.8288 44.5904H35.8641L35.8993 44.5589L36.0402 44.5275L36.0755 44.496L35.9345 44.5275C36.3221 44.4015 36.7449 44.3071 37.1325 44.2442L37.802 44.1182C38.3305 43.9923 38.859 43.8979 39.3875 43.8034C39.3875 43.8034 39.4228 43.8034 39.5285 43.8034C39.5637 43.8034 39.6342 43.8034 39.7047 43.8034C39.7399 43.8034 39.7751 43.8034 39.8104 43.8034H39.9513C39.9865 43.8034 39.9865 43.8034 40.0218 43.772L40.057 43.7405C40.057 43.7405 40.057 43.7405 40.0922 43.6775C40.1275 43.6146 40.1979 43.5516 40.2332 43.4887C40.3389 43.3627 40.4446 43.2368 40.5503 43.0794C40.9731 42.5443 41.5016 41.9777 41.9597 41.5055C42.453 41.0018 42.8053 40.6555 43.0167 40.4037C43.1929 40.2148 43.2634 40.1519 43.2281 40.2148C43.1577 40.3408 42.8053 41.0018 42.453 41.8517C42.4882 41.7888 42.2416 42.3239 41.9949 42.985C41.854 43.3313 41.713 43.709 41.6073 44.0868L41.5721 44.2127L41.5369 44.2756L41.5016 44.4015C41.4312 44.5589 41.3959 44.7163 41.255 44.8423C41.1493 44.9682 41.0083 45.0941 40.8322 45.157C40.7617 45.1885 40.6912 45.22 40.5855 45.22L40.4446 45.2515H40.4093L40.4446 45.4089C40.4798 45.6292 40.515 45.8811 40.5503 46.1014C40.1627 44.433 40.4446 45.6292 40.3741 45.283H40.2684L40.1979 45.3144C40.1275 45.3144 40.0922 45.3459 40.057 45.3459C39.9513 45.3774 39.8808 45.3774 39.8104 45.3774C39.6694 45.4089 39.5989 45.4089 39.5989 45.4089C39.1409 45.4718 38.6828 45.5033 38.2248 45.5348L37.5553 45.5977C37.1325 45.6292 36.7449 45.6607 36.3221 45.6607L35.0889 45.7551H34.948C34.8775 45.7551 34.8423 45.7551 34.807 45.7551H34.5956L34.208 45.7237H33.9614C33.9261 45.7237 33.8557 45.7237 33.8557 45.7237L33.9966 45.5977C34.1728 45.4403 34.349 45.283 34.5251 45.1256C34.5604 45.0941 34.6308 45.0626 34.6661 44.9996L34.7365 44.9052C34.7718 44.8422 34.8423 44.7793 34.9127 44.7163L35.2651 44.3701C35.5469 44.0868 35.6527 44.0238 35.7936 43.8664C35.9345 43.7405 36.0755 43.5831 36.1812 43.4257C36.6745 42.8276 37.062 42.1665 37.4496 41.5055C37.661 41.1907 37.8724 40.8759 38.1543 40.5926L38.26 40.4982L38.1543 40.4352C38.1896 40.4037 38.2248 40.3722 38.26 40.3408C38.401 40.2148 38.5771 40.1204 38.7885 40.0889C38.8943 40.0574 39 40.0574 39.1057 40.0574H39.2466L39.5637 40.026C40.5503 39.9315 41.5369 39.9315 42.5234 40.026Z" fill="#002F5A"/>
<path d="M49.0447 55.2311C49.0094 55.2626 49.0094 55.2626 48.9389 55.294C48.7628 55.3885 48.5161 55.4829 48.4104 55.4829C48.3752 55.4829 48.3752 55.4829 48.4104 55.42C48.4457 55.3885 48.4809 55.2626 48.5514 55.0107C48.5514 54.9793 48.5866 54.9163 48.5866 54.8848C49.0094 54.0664 49.5379 53.3423 50.1017 52.6183C50.3483 52.3035 50.595 52.0202 50.8769 51.7369C51.1587 51.4536 51.4406 51.2018 51.7577 50.9499C51.8282 50.887 51.9339 50.824 52.0044 50.7611L52.0396 50.7296C52.4624 51.0444 52.1453 50.824 52.251 50.887C52.2158 50.8555 52.1805 50.824 52.1453 50.824C52.0748 50.7926 52.1101 50.824 52.2158 50.824H52.3215C52.5329 50.824 52.0044 50.824 52.0748 50.824V50.7611L52.1101 50.6352L52.1453 50.3518C52.2158 49.9741 52.251 49.5964 52.251 49.2501C52.251 48.8723 52.2158 48.4946 52.1806 48.1483L52.1453 48.1168L52.1101 48.0539L52.0396 48.1483C52.0396 48.1483 52.0396 48.1483 52.0396 48.1168C52.0396 48.1168 52.1101 48.0539 51.8987 48.2742C51.6168 48.5575 51.3349 48.8409 51.0178 49.1242L50.4893 49.5649C50.0665 49.9111 49.6436 50.2259 49.2208 50.5407H49.1504L49.1151 50.5722V50.6666C49.1151 50.6981 49.1151 50.7611 49.1151 50.7926C49.1151 50.887 49.0799 50.9814 49.0799 51.0759C48.9742 51.8628 48.798 52.9016 48.6571 53.7201C48.4104 55.1367 48.4457 55.5774 48.4457 55.42C48.4104 55.2626 48.2695 54.5385 48.0581 53.6886C48.0581 53.7831 47.8467 52.7442 47.6353 51.674C47.6 51.3906 47.5648 51.1388 47.4943 50.887C47.4943 50.824 47.4591 50.7611 47.4591 50.6981V50.6037C47.4591 50.5407 47.4591 50.5092 47.4591 50.4463C47.4239 50.2259 47.4591 50.0056 47.5648 49.8167C47.6 49.7223 47.6705 49.6593 47.7057 49.5649C47.7762 49.5019 47.8467 49.439 47.9171 49.4075C48.0228 49.313 48.1286 49.2501 48.2343 49.1871C48.34 49.1242 48.4104 49.0612 48.4104 49.0612L49.5379 48.4002L50.1017 48.0539C50.4188 47.8335 50.7712 47.6447 51.0883 47.4243L51.2292 47.3613L51.2997 47.2984C51.3702 47.3299 51.4054 47.2669 51.4406 47.2354L51.652 47.0466C51.7225 46.9836 51.793 46.9206 51.8634 46.8892C52.0044 46.8262 52.1453 46.7632 52.251 46.7003L52.5681 46.5114C52.6386 46.4799 52.7091 46.4485 52.7443 46.4485C52.7795 46.4485 52.7795 46.4485 52.8148 46.417V46.5114C52.8148 46.7003 52.8148 46.9206 52.8148 47.078C52.85 47.2354 52.8148 47.3928 52.8148 47.5502V48.0539C52.8148 48.4631 52.8148 48.8094 52.85 49.1871C52.8852 49.5649 52.9557 49.9111 53.0614 50.2889L53.1319 50.5722L53.1671 50.6981L53.2024 50.7611C53.2024 50.7926 53.2024 50.887 53.2024 50.9185C53.2024 51.0129 53.1671 51.1073 53.1319 51.2018C53.0967 51.2647 53.0967 51.2962 53.0262 51.3592L52.991 51.4221C52.9557 51.5166 52.8852 51.5795 52.85 51.674C52.6386 51.9888 52.4272 52.3035 52.1453 52.5869C51.8987 52.8702 51.6168 53.1535 51.3349 53.4053C50.595 54.1293 49.8903 54.7274 49.0447 55.2311Z" fill="#002F5A"/>
<path d="M58.8041 31.1486C58.8394 31.1486 58.8746 31.1486 58.9098 31.1486C59.1212 31.1171 59.3678 31.1171 59.4383 31.1171C59.5088 31.1171 59.4383 31.1486 59.0508 31.3689L58.9451 31.4319C58.0642 31.8096 57.2186 32.2188 56.373 32.628C54.4 33.6038 52.5678 34.7055 50.8062 35.9017C49.0798 37.1293 47.4238 38.4199 45.8736 39.8679C44.3233 41.2843 42.9844 42.9526 42.1036 44.7783C41.8922 45.2505 41.6808 45.6912 41.5046 46.1948C41.3989 46.4152 41.3285 46.667 41.258 46.9188L41.1875 47.1077C41.1523 47.1706 41.1523 47.2651 41.1523 47.2336L41.2228 47.2966L43.83 49.0278L45.028 49.8148L45.0984 49.7833L45.3803 49.6259C45.5564 49.5315 45.8031 49.3741 46.0497 49.2482C46.9658 48.713 47.8466 48.115 48.6922 47.4854C50.3834 46.2263 51.828 44.7469 53.1316 43.173C54.4352 41.5991 55.5627 39.8993 56.514 38.1051L56.7958 37.5385L56.972 37.1923C57.0777 36.9719 57.1834 36.7201 57.2891 36.4998C57.2891 36.4998 57.571 35.9646 57.9233 35.2407C58.0995 34.8629 58.2756 34.4537 58.4518 34.013C58.628 33.5723 58.7689 33.1317 58.9098 32.7539C59.3326 31.4004 59.4383 30.9597 59.4031 31.1171C59.3679 31.3374 59.2974 31.9985 59.1917 32.8798C59.1917 32.8484 59.1917 33.0687 59.1212 33.4779C59.086 33.8556 58.9803 34.3908 58.8746 34.9259C58.7689 35.461 58.6632 35.9961 58.5575 36.4053C58.4518 36.8145 58.3813 37.0978 58.3813 37.0978C58.3109 37.3496 58.2052 37.6015 58.1347 37.8218L57.8528 38.5773C57.7471 38.8291 57.6414 39.0494 57.5357 39.3013C56.6901 41.1899 55.5627 43.0156 54.1533 44.6524C52.744 46.2893 51.0528 47.7372 49.1855 48.9334C48.2694 49.5315 47.2829 50.098 46.2611 50.5702L45.3803 50.9479C45.1689 51.0424 44.8518 51.0739 44.6404 50.9794L44.5347 50.9479L44.429 50.8535L44.2528 50.7276L41.0818 48.052L40.7647 47.8002L40.6943 47.7372C40.659 47.7058 40.6238 47.6743 40.5533 47.6113C40.4829 47.5169 40.4476 47.391 40.4476 47.2651C40.4476 47.2021 40.4829 47.1392 40.4829 47.1077L40.5886 46.8244L40.7295 46.4781C40.8352 46.2263 40.9409 46.006 41.0466 45.7856C41.1523 45.5653 41.258 45.3135 41.3637 45.0931C41.4694 44.8728 41.5751 44.621 41.716 44.4006C42.6673 42.5749 43.7243 40.7807 45.0632 39.1124C45.7326 38.294 46.4725 37.507 47.3181 36.7831C48.1285 36.0591 49.0445 35.4295 49.9606 34.8314C51.828 33.6353 53.8362 32.6595 55.9855 31.967C56.4435 31.8096 56.9015 31.6837 57.3948 31.5578C57.8528 31.3689 58.3461 31.243 58.8041 31.1486Z" fill="#002F5A"/>
<path d="M46.3332 51.1055C46.3685 51.1055 46.4037 51.074 46.4389 51.074C46.6151 51.0111 46.8617 50.9481 46.9322 50.9481C47.0027 50.9481 46.9322 50.9796 46.5799 51.2629L46.4742 51.3259L45.8752 51.6721L45.5581 51.861C45.4524 51.9239 45.3115 51.9869 45.1705 52.0184C45.0296 52.0498 44.8534 52.0813 44.6773 52.0498C44.5011 52.0184 44.3602 51.9554 44.2545 51.8925C44.1135 51.8295 44.0431 51.7666 43.9374 51.7036L43.6555 51.5147C42.8451 50.9796 41.9995 50.413 41.1892 49.8779L39.956 49.028L39.3571 48.6188C39.2514 48.5558 39.0752 48.4299 38.9695 48.2725C38.8286 48.1152 38.7581 47.9263 38.7229 47.706C38.6876 47.4856 38.7229 47.2967 38.7933 47.1394L38.899 46.7931C39.0047 46.4783 38.9695 46.6042 38.9695 46.5728H38.9343L36.0451 47.0449L34.5301 47.2653L33.755 47.3912L33.297 47.4541C33.0503 47.4856 32.8037 47.4856 32.5571 47.4227C32.099 47.3282 31.7467 46.982 31.5705 46.6042C31.3944 46.2265 31.5001 45.7543 31.7819 45.4081C31.8524 45.3137 31.9581 45.2192 32.0286 45.1563L32.1695 45.0304L32.4161 44.7785L32.9094 44.2434C34.2482 42.8584 35.6223 41.4734 36.9964 40.1199L37.5249 39.6162C37.7011 39.4588 37.842 39.3644 38.0182 39.3014C38.0887 39.27 38.1944 39.2385 38.3001 39.207C38.3353 39.207 38.4058 39.1755 38.441 39.1755H38.5467L40.097 39.0496L43.1622 38.7663L43.5498 38.7349L43.726 38.7034C43.7964 38.7034 43.8317 38.7034 43.8669 38.6719C44.0783 38.6404 44.2192 38.546 44.3954 38.4201C44.5363 38.2942 44.7477 38.1053 44.9239 37.9164C45.1001 37.7591 45.2762 37.5702 45.4524 37.4128C46.1571 36.7518 46.9322 36.1222 47.7073 35.4927C50.8078 33.0689 54.3664 31.0229 58.242 29.6378C58.7353 29.449 59.2286 29.3231 59.7218 29.1342H59.7571L59.8275 29.1027C59.898 29.0713 59.9332 29.0713 60.0037 29.0713C60.1446 29.0398 60.2503 29.0398 60.3913 29.0713C60.6379 29.1027 60.8845 29.1972 61.0607 29.3545C61.4483 29.6378 61.5892 30.173 61.5187 30.5192C61.413 31.4635 61.2721 32.3764 61.0959 33.2892C60.7084 35.1464 60.1446 36.9406 59.3343 38.7034C58.5591 40.4661 57.5726 42.1344 56.4451 43.7083C56.1633 44.1175 55.8462 44.4638 55.5643 44.8415L54.6483 45.9432L54.613 45.9747C54.613 45.9747 54.613 45.9117 54.613 46.1006L54.6483 46.7931L54.754 50.9167V51.0111C54.754 51.074 54.754 51.1055 54.754 51.1685C54.754 51.2629 54.7187 51.3573 54.6835 51.4518C54.613 51.6406 54.5426 51.798 54.4016 51.9869C54.3664 52.0184 54.2959 52.0813 54.2959 52.1128L54.0845 52.3017L53.8379 52.5535L52.8161 53.5922C51.4773 54.9773 50.1032 56.3308 48.7291 57.7158C48.6234 57.8417 48.4824 57.9361 48.271 58.0306C48.1653 58.0621 48.0597 58.125 47.954 58.125H47.7778C47.7073 58.125 47.6369 58.125 47.5664 58.125C47.4255 58.0935 47.3198 58.0621 47.2141 58.0306C47.0027 57.9361 46.756 57.7788 46.6503 57.5584C46.5446 57.3695 46.5094 57.1492 46.5094 56.9918V56.6141C46.5094 56.6141 46.6856 54.2218 46.756 52.5535C46.8265 51.137 46.7913 50.6963 46.8265 50.8537C46.8265 51.0111 46.9322 51.7351 47.0027 52.585C47.0027 52.4905 47.1084 53.5293 47.2141 54.5995C47.3198 55.6698 47.4607 56.7715 47.4607 56.7715C47.4607 57.0548 47.5312 57.1492 47.5664 57.1492C47.5664 57.1492 47.6369 57.1807 47.6721 57.1807C47.6721 57.1807 47.7073 57.1807 47.813 57.0548L48.7291 56.016C49.9622 54.5995 51.1954 53.1516 52.4638 51.7351L52.9218 51.2C53.0275 51.074 52.9923 51.137 52.9923 51.074C52.9923 51.0426 53.0275 51.0111 53.0275 50.9796L52.9571 49.7205L52.8161 47.0134L52.7809 46.3524V46.0062C52.7809 45.9747 52.7809 45.8173 52.7809 45.7229C52.7809 45.597 52.8161 45.5025 52.8514 45.4081C52.8866 45.3137 52.9218 45.1877 52.9923 45.0933C53.0275 45.0304 53.0628 44.9989 53.098 44.9674L53.1685 44.9044L53.3799 44.6212L53.8027 44.086C54.0845 43.7083 54.4016 43.3621 54.6835 42.9843C54.9654 42.6066 55.212 42.2603 55.4586 41.8826C56.4804 40.4032 57.3612 38.8293 58.1011 37.1925C58.8058 35.5556 59.3695 33.8558 59.7571 32.1246C59.8628 31.6839 59.9332 31.2432 60.0037 30.834L60.1094 30.2359C60.1094 30.2044 60.1094 30.2044 60.1094 30.2044L59.2638 30.4248C58.7705 30.5507 58.3125 30.6766 57.8545 30.834C54.0845 31.9672 50.526 33.6985 47.5664 36.1222C47.1788 36.4055 46.8265 36.7518 46.4742 37.0351C46.1218 37.3498 45.7695 37.6646 45.4524 38.0109L44.9591 38.5145C44.783 38.7034 44.5716 38.8922 44.2545 39.0182C44.1135 39.0811 43.9726 39.1126 43.8317 39.1441L43.4441 39.207L39.0047 39.9625L38.6172 40.0254C38.5467 40.0254 38.5115 40.0569 38.441 40.0884L38.3705 40.1513V40.1828L38.3353 40.2143L38.1239 40.4976L37.6659 41.0327C36.4327 42.4807 35.1995 43.8972 33.9312 45.2822L33.4379 45.8173L33.3322 45.9432L33.2617 46.0062L36.0451 45.6284L39.3218 45.2192C39.8151 45.1563 40.2731 45.0933 40.7664 45.0618H40.8016V45.0933L40.7664 45.1563L40.7312 45.3137L40.5198 45.9432C40.4845 46.0376 40.4493 46.1636 40.4141 46.258L40.1674 46.919L40.0265 47.2338L39.9208 47.4856C39.9208 47.5486 39.9208 47.5486 39.9208 47.58C39.8151 47.6115 40.3788 47.9892 40.7312 48.2725L41.8586 49.1854C42.5985 49.7835 43.3384 50.413 44.0783 51.0111L44.6068 51.4518C44.7477 51.5777 44.8887 51.6092 45.0648 51.5777C45.1705 51.5777 45.241 51.5462 45.3467 51.4833L45.6638 51.3573L46.3332 51.1055Z" fill="#002F5A"/>
<path d="M38.7209 54.1596C38.6505 54.254 38.58 54.4744 38.4038 54.6318C36.8887 56.3002 35.3384 57.9371 33.7881 59.6055C33.4357 59.9517 33.1186 60.3295 32.8015 60.7072C32.5548 60.9905 32.132 61.022 31.8502 60.8017C31.533 60.5813 31.4978 60.235 31.7797 59.9517C33.6471 57.9056 35.5498 55.8909 37.4525 53.8448C37.6287 53.6559 37.8401 53.4671 38.1572 53.53C38.4743 53.53 38.6857 53.7504 38.7209 54.1596Z" fill="#002F5A"/>
<path d="M38.1922 54.4442C38.2275 54.4442 38.2275 54.4128 38.2979 54.4128C38.4741 54.3498 38.6503 54.1609 38.7208 54.1295C38.756 54.098 38.756 54.1295 38.756 54.1924C38.756 54.2554 38.756 54.3813 38.7208 54.6331C38.7208 54.6646 38.6855 54.7276 38.6855 54.7905C38.2627 55.609 37.7694 56.3645 37.1704 57.057C36.9238 57.3718 36.6419 57.6866 36.36 58.0014C36.0781 58.2847 35.7258 58.568 35.3734 58.8198C35.0211 59.0716 34.6688 59.3235 34.3164 59.6068C33.9641 59.8586 33.6822 60.1419 33.3651 60.4567L33.1537 60.6771C33.0832 60.74 33.048 60.8345 32.907 60.9289C32.6956 61.1178 32.3433 61.2437 31.9909 61.1807C31.6386 61.1178 31.3567 60.9289 31.2157 60.6141C31.0396 60.2993 31.11 59.8901 31.3214 59.6383C31.5681 59.2605 31.7795 58.9457 32.0261 58.5995C32.2728 58.2532 32.5547 57.9384 32.8013 57.6236C33.1184 57.2459 33.4355 56.8366 33.7526 56.4589C33.7526 56.4589 34.2107 56.0182 34.8802 55.4831C35.5496 54.9479 36.4305 54.2868 37.1704 53.7202C37.3114 53.5943 37.4875 53.4684 37.6989 53.4054C37.9104 53.3425 38.0865 53.374 38.2275 53.4369C38.5093 53.5314 38.615 53.7517 38.6503 53.8776C38.6855 54.1609 38.6855 54.2239 38.6855 54.1295C38.6855 54.098 38.6503 54.035 38.615 53.9406C38.5798 53.8461 38.4741 53.7517 38.3684 53.6887C38.2627 53.6258 38.0513 53.6258 37.9456 53.6887C37.8399 53.7517 37.7342 53.8776 37.6285 54.098C37.6989 54.035 37.1 54.9479 36.4657 55.8608C36.1486 56.333 35.7963 56.7737 35.5496 57.12C35.2677 57.4662 35.0916 57.6551 35.0916 57.6551C34.7745 57.9699 34.4573 58.2532 34.1402 58.568C33.8231 58.8513 33.5412 59.1346 33.2241 59.4179C32.907 59.7012 32.5547 59.9845 32.2376 60.2049C32.1671 60.2364 32.0966 60.2678 32.0966 60.3308C32.0614 60.3938 32.1318 60.5197 32.2376 60.5512C32.3433 60.6141 32.4842 60.5826 32.5899 60.5197C32.6251 60.4882 32.7308 60.3938 32.8013 60.3308L33.0127 60.1105C33.5765 59.4809 33.9993 58.7569 34.4221 58.0643C34.6335 57.7181 34.8802 57.3718 35.162 57.057C35.4439 56.7422 35.7258 56.4589 36.0429 56.1756C36.6771 55.5775 37.3818 54.9794 38.1922 54.4442Z" fill="#002F5A"/>
<path d="M49.4321 39.1122C49.3263 37.947 50.3486 36.8762 51.6176 36.8132C52.9219 36.7188 54.1204 37.6321 54.1909 38.7658C54.2967 39.9626 53.2744 41.0018 51.9701 41.0963C50.6658 41.1593 49.5026 40.2775 49.4321 39.1122ZM51.9349 40.1515C52.6751 40.0885 53.2039 39.5217 53.1334 38.8603C53.0629 38.1989 52.3931 37.7265 51.6881 37.7895C50.9831 37.8525 50.4191 38.4509 50.4896 39.1122C50.5601 39.7106 51.1946 40.183 51.9349 40.1515Z" fill="#002F5A"/>
<path d="M52.2869 40.0594C52.2869 40.0594 52.2869 40.0594 52.2164 40.0909C52.1106 40.1224 51.9695 40.1539 51.899 40.1539C51.8637 40.1539 51.899 40.1854 52.1811 40.0909C52.2164 40.0909 52.2869 40.0594 52.2869 40.0594C52.569 39.9334 52.7806 39.7129 52.8511 39.4608C52.8864 39.3348 52.9216 39.2088 52.9216 39.1143C52.9216 38.9883 52.8864 38.8938 52.8158 38.7993C52.7806 38.7362 52.7453 38.6732 52.7101 38.6417C52.6748 38.5787 52.6043 38.5472 52.569 38.5157C52.4632 38.4527 52.3574 38.3897 52.2516 38.3267C52.0401 38.2637 51.8637 38.2322 51.6522 38.2637C51.6522 38.2637 51.5816 38.2637 51.4759 38.2952C51.3701 38.3267 51.1938 38.3582 51.0527 38.4842C50.8764 38.6102 50.7353 38.7993 50.6648 39.0513C50.5943 39.3033 50.7001 39.5869 50.8764 39.7759C51.1938 40.1224 51.5464 40.1539 51.7227 40.1539C51.899 40.1539 51.9695 40.1539 51.899 40.1539C51.7932 40.1539 51.2643 40.1854 50.7353 39.8074C50.7706 39.8389 50.5943 39.7444 50.4532 39.5238C50.2769 39.3033 50.1359 38.9253 50.2064 38.4842C50.2769 38.0747 50.5943 37.6651 50.9469 37.5076C51.1232 37.4131 51.2643 37.3501 51.4053 37.3501C51.5111 37.3186 51.5816 37.3186 51.5816 37.3186C52.0048 37.2871 52.4279 37.3816 52.7453 37.6021C52.9569 37.7281 53.0979 37.9171 53.2037 38.1062C53.2743 38.2007 53.3095 38.2952 53.3448 38.4212C53.38 38.5157 53.38 38.6417 53.38 38.7362C53.38 39.0828 53.239 39.3978 53.0274 39.6184C52.8511 39.8074 52.569 39.9964 52.2869 40.0594Z" fill="#002F5A"/>
<path d="M49.432 38.768C49.432 38.768 49.432 38.768 49.432 38.8309C49.432 39.0513 49.432 39.3661 49.432 38.8309C49.432 38.8309 49.432 38.7995 49.432 38.768C49.432 38.6421 49.4673 38.4847 49.5025 38.3588C49.5378 38.2328 49.573 38.1069 49.6435 37.981C49.7139 37.8551 49.7844 37.7292 49.8549 37.6033C49.8901 37.5403 49.9253 37.4773 49.9958 37.4459C50.031 37.3829 50.1015 37.32 50.1367 37.2885C50.3834 37.0681 50.6653 36.8792 50.9824 36.7533C51.2995 36.6274 51.6871 36.533 52.0394 36.533C52.427 36.533 52.7794 36.5959 53.1317 36.7219C53.484 36.8478 53.8012 37.0681 54.083 37.32C54.3297 37.5718 54.5411 37.9181 54.6468 38.2643C54.7525 38.6106 54.7877 38.9883 54.7173 39.3346C54.6468 39.6809 54.5059 40.0271 54.2592 40.3105C54.0478 40.5938 53.7307 40.8456 53.4136 41.003C53.3431 41.066 53.2374 41.0974 53.1317 41.1289C53.0612 41.1604 52.9555 41.1919 52.8498 41.2233C52.7441 41.2548 52.6736 41.2548 52.5679 41.2863C52.4622 41.3178 52.3918 41.3178 52.2861 41.3178C52.2861 41.3178 52.1804 41.3178 51.9689 41.3178C51.7575 41.2863 51.5109 41.2548 51.229 41.1604C50.9471 41.066 50.6653 40.9086 50.3834 40.7512C50.1367 40.5623 49.9253 40.3419 49.7492 40.1216C49.5025 39.7438 49.432 39.429 49.3968 39.2717C49.3616 39.1143 49.3616 39.0513 49.3616 39.1143C49.3616 39.2087 49.3968 39.6809 49.7844 40.1216C49.7844 40.0901 49.8549 40.216 50.0663 40.3734C50.2425 40.5308 50.5596 40.7197 50.9119 40.8141C51.2643 40.9086 51.6166 40.9086 51.8632 40.8456C52.1099 40.8141 52.2508 40.7197 52.2508 40.7197C52.3213 40.6882 52.3565 40.6882 52.427 40.6567C52.4975 40.6252 52.5327 40.5938 52.6032 40.5623C52.6736 40.5308 52.7089 40.4993 52.7441 40.4678C52.7794 40.4364 52.8498 40.4049 52.8851 40.3734C53.0965 40.216 53.2374 40.0271 53.3783 39.8068C53.484 39.5864 53.5897 39.3661 53.625 39.1457C53.6602 38.9254 53.6602 38.705 53.5898 38.4847C53.5193 38.2643 53.4136 38.0754 53.2726 37.8551C53.1317 37.6662 52.9203 37.4773 52.7089 37.3514C52.4975 37.2255 52.2156 37.0996 51.9689 37.0366C51.6871 36.9737 51.4052 36.9737 51.0881 37.0366C50.8062 37.0996 50.4891 37.194 50.2425 37.3829C50.1367 37.4459 50.031 37.5403 49.9253 37.6347C49.8196 37.7292 49.7492 37.8551 49.6787 37.9495C49.6082 38.0754 49.5378 38.2014 49.5025 38.3273C49.4673 38.5162 49.432 38.6421 49.432 38.768Z" fill="#002F5A"/>
</g>
</g>
</svg>
